<svg xmlns="http://www.w3.org/2000/svg" width="480" height="1500" viewBox="0 0 480 1500" role="img" aria-labelledby="title desc"><title id="title">Benja Guerra · GitHub dashboard</title><desc id="desc">10 repositorios públicos, 1 estrellas, 0 forks recibidos y 0 seguidores. Actualizado 21/09/2026 · 21:16 UTC.</desc><g font-family="Segoe UI,Arial,sans-serif"><rect width="480" height="1500" rx="26" fill="#090f19"/><rect x="20" y="20" width="440" height="210" rx="22" fill="#111d2d" stroke="#26354b"/><circle cx="93" cy="94" r="45" fill="#172b30" stroke="#bafa55" stroke-width="2"/><text x="93" y="107" font-size="38" fill="#bafa55" font-weight="750" text-anchor="middle">BG</text><text x="160" y="88" font-size="30" fill="#eef4fc" font-weight="700" text-anchor="start">Benja Guerra</text><text x="160" y="120" font-size="18" fill="#aab9ce" font-weight="400" text-anchor="start">@benjaguerra192</text><text x="45" y="173" font-size="22" fill="#eef4fc" font-weight="400" text-anchor="start">Ideas que se pueden probar.</text><text x="45" y="207" font-size="15" fill="#bafa55" font-weight="400" text-anchor="start">WEB / HERRAMIENTAS / SIM RACING</text><rect x="20" y="246" width="440" height="402" rx="22" fill="#111d2d" stroke="#26354b"/><text x="45" y="282" font-size="16" fill="#aab9ce" font-weight="600" text-anchor="start">LENGUAJES</text><circle cx="240.0" cy="400" r="76" fill="none" stroke="#243246" stroke-width="25"/><circle cx="240.0" cy="400" r="76" fill="none" stroke="#bafa55" stroke-width="25" stroke-dasharray="211.9295 265.5926" stroke-dashoffset="0.0000" transform="rotate(-90 240.0 400)"/><circle cx="240.0" cy="400" r="76" fill="none" stroke="#65d5ff" stroke-width="25" stroke-dasharray="160.4433 317.0788" stroke-dashoffset="-211.9295" transform="rotate(-90 240.0 400)"/><circle cx="240.0" cy="400" r="76" fill="none" stroke="#ae9aff" stroke-width="25" stroke-dasharray="54.5174 423.0047" stroke-dashoffset="-372.3728" transform="rotate(-90 240.0 400)"/><circle cx="240.0" cy="400" r="76" fill="none" stroke="#ffb66e" stroke-width="25" stroke-dasharray="31.2910 446.2311" stroke-dashoffset="-426.8902" transform="rotate(-90 240.0 400)"/><circle cx="240.0" cy="400" r="76" fill="none" stroke="#ff7eb6" stroke-width="25" stroke-dasharray="11.0899 466.4322" stroke-dashoffset="-458.1812" transform="rotate(-90 240.0 400)"/><circle cx="240.0" cy="400" r="76" fill="none" stroke="#6985a9" stroke-width="25" stroke-dasharray="8.2510 469.2711" stroke-dashoffset="-469.2711" transform="rotate(-90 240.0 400)"/><text x="240.0" y="406" font-size="37" fill="#eef4fc" font-weight="700" text-anchor="middle">44%</text><text x="240.0" y="435" font-size="15" fill="#aab9ce" font-weight="400" text-anchor="middle">JavaScript</text><circle cx="49.0" cy="518" r="4" fill="#bafa55"/><text x="61.0" y="523" font-size="15" fill="#eef4fc" font-weight="400" text-anchor="start">JavaScript 44.4%</text><circle cx="261.0" cy="518" r="4" fill="#65d5ff"/><text x="273.0" y="523" font-size="15" fill="#eef4fc" font-weight="400" text-anchor="start">HTML 33.6%</text><circle cx="49.0" cy="550" r="4" fill="#ae9aff"/><text x="61.0" y="555" font-size="15" fill="#eef4fc" font-weight="400" text-anchor="start">Lua 11.4%</text><circle cx="261.0" cy="550" r="4" fill="#ffb66e"/><text x="273.0" y="555" font-size="15" fill="#eef4fc" font-weight="400" text-anchor="start">CSS 6.6%</text><circle cx="49.0" cy="582" r="4" fill="#ff7eb6"/><text x="61.0" y="587" font-size="15" fill="#eef4fc" font-weight="400" text-anchor="start">Python 2.3%</text><circle cx="261.0" cy="582" r="4" fill="#6985a9"/><text x="273.0" y="587" font-size="15" fill="#eef4fc" font-weight="400" text-anchor="start">Otros 1.7%</text><text x="45" y="624" font-size="13" fill="#aab9ce" font-weight="400" text-anchor="start">Por bytes · sin forks ni perfil</text><rect x="20" y="664" width="440" height="402" rx="22" fill="#111d2d" stroke="#26354b"/><text x="45" y="700" font-size="16" fill="#aab9ce" font-weight="600" text-anchor="start">REPOSITORIOS</text><circle cx="240.0" cy="818" r="76" fill="none" stroke="#243246" stroke-width="25"/><circle cx="240.0" cy="818" r="76" fill="none" stroke="#bafa55" stroke-width="25" stroke-dasharray="429.7699 47.7522" stroke-dashoffset="0.0000" transform="rotate(-90 240.0 818)"/><circle cx="240.0" cy="818" r="76" fill="none" stroke="#65d5ff" stroke-width="25" stroke-dasharray="47.7522 429.7699" stroke-dashoffset="-429.7699" transform="rotate(-90 240.0 818)"/><text x="240.0" y="824" font-size="37" fill="#eef4fc" font-weight="700" text-anchor="middle">10</text><text x="240.0" y="853" font-size="15" fill="#aab9ce" font-weight="400" text-anchor="middle">públicos</text><circle cx="49" cy="940" r="5" fill="#bafa55"/><text x="65" y="945" font-size="18" fill="#eef4fc" font-weight="400" text-anchor="start">Originales</text><text x="432" y="945" font-size="20" fill="#eef4fc" font-weight="700" text-anchor="end">9</text><circle cx="49" cy="975" r="5" fill="#65d5ff"/><text x="65" y="980" font-size="18" fill="#eef4fc" font-weight="400" text-anchor="start">Forks</text><text x="432" y="980" font-size="20" fill="#eef4fc" font-weight="700" text-anchor="end">1</text><text x="45" y="1042" font-size="13" fill="#aab9ce" font-weight="400" text-anchor="start">Incluye este repositorio de perfil</text><rect x="20" y="1082" width="440" height="294" rx="22" fill="#111d2d" stroke="#26354b"/><text x="45" y="1120" font-size="18" fill="#aab9ce" font-weight="600" text-anchor="start">EN NÚMEROS</text><text x="130" y="1172" font-size="37" fill="#bafa55" font-weight="700" text-anchor="middle">1</text><text x="130" y="1202" font-size="19" fill="#eef4fc" font-weight="400" text-anchor="middle">Estrellas</text><text x="350" y="1172" font-size="37" fill="#bafa55" font-weight="700" text-anchor="middle">0</text><text x="350" y="1202" font-size="19" fill="#eef4fc" font-weight="400" text-anchor="middle">Forks recibidos</text><text x="130" y="1266" font-size="37" fill="#bafa55" font-weight="700" text-anchor="middle">0</text><text x="130" y="1296" font-size="19" fill="#eef4fc" font-weight="400" text-anchor="middle">Seguidores</text><text x="350" y="1266" font-size="37" fill="#bafa55" font-weight="700" text-anchor="middle">0</text><text x="350" y="1296" font-size="19" fill="#eef4fc" font-weight="400" text-anchor="middle">Siguiendo</text><text x="45" y="1351" font-size="16" fill="#aab9ce" font-weight="400" text-anchor="start">Estrellas y forks: originales públicos</text><text x="28" y="1419" font-size="15" fill="#bafa55" font-weight="600" text-anchor="start">ACTUALIZACIÓN AUTOMÁTICA · CADA 30 MIN</text><text x="28" y="1446" font-size="14" fill="#aab9ce" font-weight="400" text-anchor="start">Datos públicos · 21/09/2026 · 21:16 UTC</text></g></svg>